# xmcd
#
# Track frame offsets:
#	150
#	14482
#	36232
#	56722
#	80235
#	110086
#	134727
#	159507
#	183478
#	205966
#	228656
#	249890
#
# Disc length: 3661 seconds
#
# Revision: 12
# Processed by: cddbd v1.5.2PL0 Copyright (c) Steve Scherf et al.
# Submitted via: Jack! The Knife 20 Magnifico
#
DISCID=b00e4b0c
DTITLE=Queensrÿche - American Soldier
DYEAR=2009
DGENRE=Heavy Metal
TTITLE0=Sliver
TTITLE1=Unafraid
TTITLE2=Hundred Mile Stare
TTITLE3=At 30,000 Ft
TTITLE4=A Dead Man's Words
TTITLE5=The Killer
TTITLE6=Middle Of Hell
TTITLE7=If I Were King
TTITLE8=Man Down!
TTITLE9=Remember Me
TTITLE10=Home Again
TTITLE11=The Voice
EXTD=Jason Slater and Jelly Gray
EXTT0=Slater, Tate
EXTT1=Slater, Tate
EXTT2=Gray, Tate
EXTT3=Slater, Tate
EXTT4=Slater, Tate
EXTT5=Slater, Tate
EXTT6=Gray, Johnson, Rockenfield, Tate
EXTT7=Slater, Tate
EXTT8=Gray, Tate
EXTT9=Slater, Tate
EXTT10=Gray, Johnson, Rockenfield, Tate
EXTT11=Slater, Tate
PLAYORDER=
